<svg xmlns="http://www.w3.org/2000/svg" viewBox="0 0 792 612"><defs><style>.cls-1{isolation:isolate;}.cls-2{fill:#ffe7ab;}.cls-3{fill:#96baa9;}.cls-4{fill:#4270b7;}.cls-5{fill:#3869b2;}.cls-6{fill:#f5856a;}.cls-7{fill:#0f2436;}.cls-8{fill:#dd4027;}.cls-9{fill:#d3725f;}.cls-10{fill:#4272b8;}.cls-11{fill:#265174;}.cls-12{fill:#e15c4d;}.cls-13,.cls-15,.cls-16{fill:#499a44;}.cls-13,.cls-17{opacity:0.28;}.cls-13,.cls-15,.cls-17,.cls-18,.cls-21,.cls-22{mix-blend-mode:multiply;}.cls-14{fill:#fff;}.cls-15{opacity:0.11;}.cls-18{opacity:0.13;}.cls-19{fill:#41833e;}.cls-20,.cls-21,.cls-22{fill:#f6f29f;}.cls-22{opacity:0.44;}.cls-23{fill:#f9c014;}.cls-24{fill:#f68d3e;}</style></defs><title>background</title><g class="cls-1"><g id="Layer_1" data-name="Layer 1"><rect class="cls-2" x="0.09" y="-0.81" width="791.91" height="613.62"/><ellipse class="cls-3" cx="398.97" cy="290.49" rx="249.18" ry="338.31" transform="translate(107.05 688.42) rotate(-89.79)"/><path class="cls-4" d="M241.77,612H.09v-9.75A345,345,0,0,1,28,533.33a470.11,470.11,0,0,1,37.1-58.05c1.66-2.21,13.74-21.4,17-21.11l117.69,10.62,7.13,25,31.89,111.6Z"/><path class="cls-5" d="M348.94,490.69c-9.59,31.07-61.35,77.24-110.21,110.66-5.45,3.72-10.86,7.29-16.16,10.65H89.94c-14.4-17.41-22.72-41.37-16.9-70.15l133.8-52.1,132.27-51.5Z"/><path class="cls-6" d="M203.06,321.74s73.15,158.31-43.42,176.92c0,0-71.22,20-101.9-38.69-35-59.12-34-156.07-34-156.07l145.75-24.3Z"/><path class="cls-7" d="M63.76,297.24l59.33,21.93L96,291.87,206.6,330.55s-2.33-92-115-75.84c0,0-56,14.09-74.73,42.39S5.75,384.85,42.17,425.31C42.17,425.31,85.47,340,63.76,297.24Z"/><path class="cls-8" d="M143.72,365.31c6.22.15,18.1,19.71,21,23.74,4.68,6.59,15.89,21.86,8.13,29.65a8,8,0,0,1-2.75,1.6,85.15,85.15,0,0,1-25.36,6,7.14,7.14,0,0,1-3.25-.28c-8.17-3.38-6.27-24.16-6-30.74a97.69,97.69,0,0,1,3.22-21.79c.6-2.13,1.7-7.33,4.17-8.09A2.87,2.87,0,0,1,143.72,365.31Z"/><circle class="cls-9" cx="93.57" cy="409.81" r="15.82"/><circle class="cls-9" cx="195.32" cy="390.77" r="14.73"/><path class="cls-7" d="M160.28,334.36A46.79,46.79,0,0,1,179.05,340c3.39,1.85,6.43-3.33,3-5.18a54.23,54.23,0,0,0-21.8-6.44c-3.85-.32-3.83,5.69,0,6Z"/><path class="cls-7" d="M94.85,353A46.47,46.47,0,0,1,112,343.39c3.67-1.16,2.1-6.95-1.6-5.79a53.86,53.86,0,0,0-19.75,11.18c-2.9,2.57,1.36,6.8,4.24,4.25Z"/><circle class="cls-7" cx="107.43" cy="379.1" r="7.08"/><circle class="cls-7" cx="174.82" cy="362.21" r="7.08"/><path class="cls-10" d="M14.91,383.48s48.41-82.92,178.65-96.69l-15.46-29a12.33,12.33,0,0,0-11.33-6.76C141,252.21,56.56,261.62,7.19,334.74c-2.72,4-5.25,7.14-2.74,18.57Z"/><path class="cls-6" d="M43.11,393.92s-32.24-26.44-34.82,5.8,18.47,57.91,48.14,53Z"/><path class="cls-8" d="M31.17,401.92a6.83,6.83,0,0,0-8.87,6c-.61,6.39,5.48,10,10.57,12l.4-2.95a9.26,9.26,0,0,0-9.7,12.59,18.45,18.45,0,0,0,7.51,8.81c3.91,2.18,8.31,1.18,12.39.1a1.5,1.5,0,0,0-.8-2.89c-5.25,1.39-9.35,1.7-13.22-2.49-1.69-1.83-3.81-4.71-3.64-7.37.25-4,3.85-6.09,7.46-5.75,1.81.18,1.84-2.37.39-2.94-2.22-.88-4.84-2-6.45-3.86-2.39-2.77-2.78-10.22,3.16-8.4,1.85.57,2.64-2.33.8-2.89Z"/><path class="cls-11" d="M14.91,383.48s11.77-9.2,18.51-11.45,44.94-36.48,74-50.57c27.56-13.35,87.89-23.71,90.17-24.27s-4-10.4-4-10.4S153.2,288,105.46,310,21.52,367.24,14.91,383.48Z"/><path class="cls-8" d="M186.82,454.47c-2.15,6.76-7.31,13-18.13,16.11-39.95,10.31-36.18-29-36.18-29L158,435l26.68-6.87S190.75,442.16,186.82,454.47Z"/><path class="cls-12" d="M186.82,454.47c-2.15,6.76-7.31,13-18.13,16.11-39.95,10.31-36.18-29-36.18-29L158,435C172.78,436.39,184.52,444.35,186.82,454.47Z"/><path class="cls-13" d="M446.8,538.06a134.92,134.92,0,0,1-30,13.1,196.49,196.49,0,0,1-31.71,7A247.32,247.32,0,0,1,351,560.38q-6.39,0-13-.32c-34.65-1.68-65.26-9.68-88.25-21.43-12.34-6.31-22.48-13.7-29.88-21.75-.1-.12-.22-.24-.33-.36-10.66-11.73-15.54-24.86-13-38.21,7-36.77,68.7-61.81,138.25-58.44,1.65.08,3.29.17,4.92.29,1,.06,2,.13,3.07.22l1.14.09c2.24.19,4.46.4,6.67.66a1.2,1.2,0,0,1,.28,0c.85.09,1.7.18,2.53.3s1.88.21,2.83.35l4.06.56c1,.17,2.07.32,3.09.5s1.83.29,2.73.46l.74.13,2.64.48q2.4.44,4.77,1l2.23.47q5.43,1.19,10.64,2.62c.78.2,1.55.42,2.32.64q3.32.93,6.53,2c1,.32,2,.65,3,1,.75.24,1.49.49,2.21.75s1.61.57,2.39.86l2.61,1c5.19,2,10.14,4.12,14.8,6.43.78.38,1.55.77,2.31,1.16q2.3,1.17,4.47,2.4l2.17,1.24c.72.42,1.41.83,2.1,1.26s1.2.73,1.78,1.1l.66.42c.56.35,1.1.71,1.64,1.07,1.21.81,2.4,1.63,3.55,2.46l1.1.8c2.11,1.57,4.12,3.18,6,4.82,11.65,10.17,18.84,21.79,20,34.1C478.48,509.42,467.08,525.79,446.8,538.06Z"/><path class="cls-14" d="M442.75,533.21a135.3,135.3,0,0,1-30,13.1,198,198,0,0,1-31.72,6.94A245.76,245.76,0,0,1,347,555.52c-4.26,0-8.59-.1-13-.31-34.66-1.68-65.26-9.69-88.26-21.44-12.33-6.31-22.47-13.7-29.87-21.75-.11-.12-.23-.24-.33-.36-10.66-11.72-15.55-24.86-13-38.21,7-36.76,68.7-61.81,138.25-58.44,1.65.08,3.29.17,4.93.29,1,.06,2,.14,3.07.23l1.13.09c2.25.18,4.47.39,6.67.65a2.58,2.58,0,0,1,.29,0c.85.09,1.69.18,2.53.3s1.88.22,2.82.35c1.36.18,2.72.38,4.06.57l3.1.49c.92.15,1.82.29,2.73.47.25,0,.5.07.73.12.88.16,1.77.31,2.65.48,1.6.3,3.19.62,4.76,1,.76.15,1.5.31,2.23.48,3.62.78,7.18,1.67,10.65,2.61.78.21,1.55.42,2.31.65,2.21.62,4.4,1.27,6.53,2,1,.31,2,.64,3,1,.75.24,1.49.49,2.22.76l2.39.85,2.61,1c5.19,2,10.13,4.11,14.79,6.43.79.38,1.56.76,2.32,1.15q2.28,1.19,4.46,2.41c.74.4,1.45.82,2.17,1.23l2.11,1.26c.61.36,1.19.74,1.78,1.11.23.14.45.27.65.41l1.64,1.07c1.21.81,2.4,1.63,3.55,2.46.38.26.74.54,1.1.81q3.18,2.34,6,4.82c11.64,10.17,18.83,21.79,20,34.09C474.43,504.57,463,520.93,442.75,533.21Z"/><path class="cls-15" d="M239.06,503.32c17.1,18.12,52.57,31.92,95.83,34a212.75,212.75,0,0,0,38-1.45,163.4,163.4,0,0,0,25.63-5.34,110.93,110.93,0,0,0,24.21-10.13c16.39-9.5,25.57-22.2,24.21-36.2-2.83-29-50.55-53-106.79-55.78S234.1,445.07,228.5,473.62C226.45,484,230.43,494.2,239.06,503.32Z"/><path class="cls-16" d="M425.9,468.94c-.6,10.9-2.25,21.37-4.54,24.36-1.53,2-12.57,6.42-26.81,11.42l-3.47,1.19c-3.53,1.22-7.21,2.45-10.95,3.7l-1.83.6c-23,7.53-48,14.86-55.38,16.17a11,11,0,0,1-1.74.2,4,4,0,0,1-.7-.08,39.54,39.54,0,0,1-7.41-2.72c-8.39-2.35-21.55-9.78-34.33-18.08l-.52-.33c-.42-.27-.84-.54-1.25-.82-1.55-1-3.1-2.05-4.63-3.09-.35-.24-.71-.47-1-.71l-1.84-1.27-3.68-2.56-1.84-1.32c-11.72-8.38-20.94-16-22.4-18.47-5.17-8.87,2.3-48,6.5-58.15a6,6,0,0,1,1.05-2c5.9-6.64,77.45-24.31,91.26-25.16a11.24,11.24,0,0,1,1.86.09,25.37,25.37,0,0,1,3.19.7c7.76,2.18,20.53,8.61,33.57,16.22,3.59,2.09,7.18,4.26,10.7,6.46,3.68,2.31,7.26,4.63,10.64,6.91l1.49,1q3.07,2.08,5.86,4.1c2.17,1.56,4.2,3.07,6,4.5,5.8,4.53,9.75,8.27,10.57,10.44,1.59,4.19,2.11,13.22,1.82,22.59C426,466.2,426,467.58,425.9,468.94Z"/><g class="cls-17"><path class="cls-16" d="M251.93,426.93c3.23,2.73,6.45,5.48,9.7,8.17a95.31,95.31,0,0,0,8.55,6.46,60.71,60.71,0,0,0,9.72,5c6.73,2.84,13.76,4.93,20.29,8.25,3.28,1.67,6.27,3.81,9.49,5.57a49,49,0,0,0,9.64,4c6.95,2,14,1.84,21.1.73,14.63-2.31,28.19-8.7,41.63-14.74,11.75-5.28,23.43-10.8,35.41-15.54q-1.71-1.46-3.77-3.06c-1.84-1.43-3.87-2.94-6-4.5q-2.79-2-5.86-4.1l-1.49-1c-3.38-2.28-7-4.6-10.64-6.91-3.52-2.2-7.11-4.37-10.7-6.46-13-7.61-25.81-14-33.57-16.22a25.37,25.37,0,0,0-3.19-.7,11.24,11.24,0,0,0-1.86-.09c-13.81.85-85.36,18.52-91.26,25.16a6,6,0,0,0-1.05,2c-.4,1-.83,2.2-1.27,3.63C248.52,424,250.22,425.48,251.93,426.93Z"/></g><g class="cls-18"><path class="cls-16" d="M425.43,447.31c-.07-.24-.14-.49-.22-.73a10.1,10.1,0,0,0-1.68-3.38,1.48,1.48,0,0,0-1.78-.49c-1.36.5-2.44,2.29-3.56,3.37a37.38,37.38,0,0,1-5,3.93c-3.89,2.6-8.12,3.48-12.58,4.51a23.09,23.09,0,0,0-6.75,2.5c-2,1.18-3.93,2.45-5.89,3.68a43.8,43.8,0,0,1-12.69,5.61,89.8,89.8,0,0,1-14.76,2.24c-4.49.35-9,.36-13.45.56-3.66.15-8.13.65-10.52,3.86-2.2,3-2.34,7.14-2.4,10.7-.06,4.11,0,8.15-.43,12.26-.57,5.36-1.54,10.67-2.64,15.94-.56,2.67-1.13,5.32-1.85,7.94a51.77,51.77,0,0,0-1.26,5.45c10.58-2.62,31.18-8.76,50.36-15.05l1.83-.6c3.74-1.25,7.42-2.48,10.95-3.7l3.47-1.19c14.24-5,25.28-9.42,26.81-11.42,2.29-3,3.94-13.46,4.54-24.36.09-1.36.14-2.74.18-4.11A110,110,0,0,0,425.43,447.31Z"/></g><path class="cls-13" d="M389.66,415.27a.49.49,0,0,1-.37.16c-17.05,2-87,14.86-94.52,26-9.08,13.51-15.32,55.45-16,64.24l-.52-.33c-.42-.27-.84-.54-1.25-.82-1.55-1-3.1-2.05-4.63-3.09-.35-.24-.71-.47-1-.71l-1.84-1.27c-.18-8.83,7.78-52.8,14-64,8.74-15.69,91.37-26.6,93.53-27.09a4.8,4.8,0,0,1,2,.37C382.55,410.9,386.14,413.07,389.66,415.27Z"/><path class="cls-19" d="M264.23,493c.47,1.28,1,2.61,1.54,3.94l-1.84-1.32c-.51-1.31-1-2.64-1.43-4-2.66-7.82-4.39-16-6.13-24.09-1.78-8.29-3.27-16.81-2.87-25.33a.55.55,0,0,1,1.09,0c0,9.37,1.53,18.53,3.55,27.63C259.87,477.65,261.48,485.55,264.23,493Z"/><path class="cls-19" d="M275.73,470.48c-3.22,10-3.29,20.51-3.39,31-.35-.24-.71-.47-1-.71a117.49,117.49,0,0,1,.66-18.38,64.79,64.79,0,0,1,3.13-13.75c-.18-.77-.3-1.57-.46-2.29l-1-4.62c-2.68-12.19-4.43-25.27.15-37.26a.39.39,0,0,1,.75.24,77.24,77.24,0,0,0-2.11,20.15,107.71,107.71,0,0,0,2.9,17.75l.78,3.46c.33-.82.69-1.62,1.07-2.41a57.78,57.78,0,0,1,11.16-15.16A90.8,90.8,0,0,1,302.17,437a89.22,89.22,0,0,1,7.73-4.68c1.39-.75,2.79-1.46,4.22-2.13a16,16,0,0,1,4.12-1.59c.35-.06.71.45.36.7a27.55,27.55,0,0,1-4.3,2.18c-1.49.72-2.95,1.47-4.4,2.27a87.64,87.64,0,0,0-8.39,5.23c-9.9,6.94-19.56,16.13-24.33,27.55-.23.56-.44,1.13-.66,1.7.23,1.05.58,2,1.72,2.35a12.48,12.48,0,0,0,3.81,0c1.51-.13,3-.3,4.51-.51,11.33-1.56,22.22-5.3,33.07-8.77.74-.24.95.9.26,1.14-6.58,2.38-13.21,4.72-20,6.49a102.88,102.88,0,0,1-18.17,3.18C279.74,472.2,276.92,472.59,275.73,470.48Z"/><path class="cls-19" d="M323.94,492.87a256,256,0,0,0-26.87,5.39,112,112,0,0,0-11.82,3.92c-1.92.78-3.8,1.61-5.66,2.52l-1.37.67c-.42-.27-.84-.54-1.25-.82.92-.35,1.81-.82,2.68-1.23,13.84-6.58,29.1-9,44.06-11.46C324.36,491.76,324.58,492.77,323.94,492.87Z"/><path class="cls-19" d="M425.9,468.94c-.5,1.21-1,2.41-1.59,3.59A68,68,0,0,1,418,483.94a47.36,47.36,0,0,1-9.11,9.11c-4.81,3.85-9.62,7.67-14.3,11.67l-3.47,1.19c2.4-2.06,4.82-4.12,7.27-6.13,6.69-5.52,14.38-10.35,19.31-17.69a77.46,77.46,0,0,0,6.21-11.7c.8-1.82,1.57-3.68,2.21-5.56C426,466.2,426,467.58,425.9,468.94Z"/><path class="cls-19" d="M412.37,437.16c-1.6,3.91-2.59,8.13-3.91,12.16s-2.77,8-4.37,12A87.15,87.15,0,0,1,393,481.35a77.29,77.29,0,0,1-7.76,8.8c1.19-1.15,1-7.26,1.16-9a73.94,73.94,0,0,0,.25-9.53c-.54-9.27-3.11-18.53-8.36-26.2C373.2,438,366,432.5,358.92,427.27c-2.67-2-5.34-3.95-8-6a27.67,27.67,0,0,0-.25-8.74c-.16-.85-.32-1.71-.51-2.56a9,9,0,0,0,2,.57c3.54,1,7,2.23,10.54,3.39,2.87,1,5.75,1.93,8.6,2.92l2.14.74a36.18,36.18,0,0,1-.38,9.06c-.26,1.66-.63,3.3-1,5s-.43,3.39-1.22,4.74c-.14.23.15.52.36.32,1.09-1.13,1.28-2.92,1.67-4.39.43-1.65.76-3.34,1.06-5a36.78,36.78,0,0,0,.55-9.3c4.77,1.67,9.53,3.32,14.35,4.86,5.59,1.78,11.23,3.42,16.71,5.53q4.09,1.58,8.09,3.42c-1.84-1.43-3.87-2.94-6-4.5-5.33-1.91-10.74-3.55-16.15-5.23-5.78-1.79-11.51-3.79-17.24-5.77a.39.39,0,0,0-.41-.14c-6-2.08-12-4.12-18.05-5.89l-.89-.26a25.78,25.78,0,0,0-2-5.25,49.21,49.21,0,0,0-3.28-6.17A64.21,64.21,0,0,0,345.7,393l-.31-.39a25.37,25.37,0,0,0-3.19-.7c.68.74,1.33,1.48,2,2.25a48.25,48.25,0,0,1,4,5.64,64.25,64.25,0,0,1,3.14,5.84c.46,1,.9,1.95,1.31,2.95.12.3.24.6.35.9a106.92,106.92,0,0,0-17.87-3.3.11.11,0,0,0-.14.12,7.28,7.28,0,0,0-2.55,0,5.92,5.92,0,0,0-2.73,1.06c-2,1.59-2.34,4.45-2.57,7-.11,1.3-.23,2.6-.34,3.91-8-2.67-16.9-2.15-25.17-2-9.49.21-19,.8-28.47.43a157,157,0,0,1-15.92-1.21c-.49-.06-.64.76-.16.87a74.59,74.59,0,0,0,13.53,2.21c4.67.29,9.37.34,14.06.27,9.32-.13,18.63-.68,28-.46a45.46,45.46,0,0,1,14,2.06q-.57,6.45-1.13,12.89c-.3,3.42-.61,6.84-.9,10.26-.21,2.33-.41,4.66-.62,7-.36,4.09-.71,7.33,2,10.53,8.63,10.14,1.67,48.82-3.4,59.43a19.89,19.89,0,0,0-2,5.88,4,4,0,0,0,.7.08,11,11,0,0,0,1.74-.2,21.55,21.55,0,0,1,2-5.65c5.08-10.61,12-49.28,3.41-59.42-2.74-3.21-2.39-6.45-2-10.53.33-3.64.64-7.28,1-10.93a28.51,28.51,0,0,0,6.42,2c3.86.88,7.75,1.58,11.65,2.26a156.14,156.14,0,0,1,23.32,5.7,73.67,73.67,0,0,1,12.63,5.57.7.7,0,0,0,.63,0,54.19,54.19,0,0,1,3.23,19.18c-7.24-.71-14.47-1.5-21.67-2.61-7.82-1.23-15.58-2.85-23.37-4.23-.38-.07-.49.58-.12.69a180.76,180.76,0,0,0,23.18,4.87c7.28,1.14,14.62,2.06,22,2.56a96.13,96.13,0,0,1-3.39,22.72c-.66,2.52-1.38,5-2.14,7.49a.38.38,0,0,0-.57.16,28.07,28.07,0,0,0-4.19-.79c-1.87-.23-3.75-.3-5.63-.35a82.73,82.73,0,0,1-11.24-.56,93.94,93.94,0,0,1-10.6-2.29,80.52,80.52,0,0,1-9.65-3.69c-.26-.12-.43.3-.2.45,2.72,2,6.15,3.1,9.38,4s6.73,1.56,10.11,2.15a70.7,70.7,0,0,0,11.17.78,43.3,43.3,0,0,1,5.88.55c1.7.26,3.44.71,5.15.9-.3,1-.61,1.93-.92,2.9l1.83-.6c.75-2.41,1.48-4.83,2.16-7.26,1-3.66,2-7.37,2.71-11.12,12.47-9.48,19.34-24.74,24.21-39.33a116.81,116.81,0,0,0,4.3-14.37A.6.6,0,0,0,412.37,437.16ZM335,406.37a.15.15,0,0,0,.12.1c4.65.81,9.25,1.9,13.82,3.15a.78.78,0,0,0,0,.29,18.83,18.83,0,0,1,.89,2.85,24.63,24.63,0,0,1,.46,3,27.05,27.05,0,0,1,.06,5.09c-1.4-1.08-2.78-2.17-4.14-3.3-4.3-3.57-8.49-7.25-12.82-10.79A5.7,5.7,0,0,1,335,406.37Zm25.31,39.7c-7.75-1.71-15.54-3.29-23.3-5-3.14-.67-6.62-1.22-9.57-2.68.14-1.63.29-3.28.43-4.91q.6-6.66,1.17-13.33a.92.92,0,0,0,0-.37c.16-1.77.32-3.54.47-5.31.23-2.56.61-5.42,2.58-7a5.31,5.31,0,0,1,.65-.44,188.26,188.26,0,0,0,21.76,18.72c7.09,5.24,14.37,10.37,20.16,17.15a41.47,41.47,0,0,1,6.64,10.82A76.21,76.21,0,0,0,360.27,446.07Z"/><path class="cls-20" d="M348.4,519.55c2.06-8.19,9.05-43.75,5.14-56.65s-61.26-52.53-78-56.18c-2.85-.62,8.49-5,10.58-4.25s69.14,34.87,77.91,56.45c5.2,12.8-2.89,54.82-4.87,57.38S347.69,522.36,348.4,519.55Z"/><path class="cls-21" d="M312.94,417.05c-1.85.46-3.74.76-5.58,1.28a40.32,40.32,0,0,0-4.89,1.8c5.82,3.61,11.92,7.68,17.8,11.87,3.26-.89,6.59-1.55,9.76-2.71l1.56-.58C325.36,424.55,318.94,420.58,312.94,417.05Z"/><path class="cls-20" d="M394.43,503.62c2.08-7.91,9.13-42.26,5.1-54.75s-63.29-49.7-80.45-53.27c-2.92-.61,7.79-3.25,10-2.66,9.11,2.48,74.64,34.81,81.16,52.12,4.76,12.63-2.81,53-4.83,55.45S393.71,506.33,394.43,503.62Z"/><path class="cls-21" d="M358.94,407c-1.92.53-3.8,1.12-5.69,1.74a23.92,23.92,0,0,1-3.93,1c5.24,3,10.64,6.36,15.88,9.78,2.86-1.18,6-1.61,9-2.5l1.65-.51C370.22,413.16,364.45,409.93,358.94,407Z"/><path class="cls-20" d="M276.74,504.4c.58-8,6.86-50.86,16.05-64.55,7.5-11.16,77.48-24,94.53-26,2.9-.34-10.19-7.48-12.34-7s-84.78,11.4-93.52,27.09C274.74,446,266,496.56,267.69,499.3S276.53,507.3,276.74,504.4Z"/><path class="cls-22" d="M380.15,408.52c-.87,1.43-2.65,2.2-4.13,2.7a25.83,25.83,0,0,1-6.28,1.2,71.27,71.27,0,0,0-11.91,2.26c-13.26,3.38-26.76,5.83-39.91,9.66a110.53,110.53,0,0,0-19,7.28c-5.1,2.58-8.46,6.9-10.85,12.08a120.17,120.17,0,0,0-5.91,17.38c-2.07,7.21-4,14.51-5.52,21.86-.88,4.34-1.24,8.87-3.25,12.88-.87,1.74-2.29,3.45-4.35,3.59a3.31,3.31,0,0,1-1.4-.19l0,.08c1.73,2.74,8.84,8,9.05,5.1.58-8,6.86-50.86,16.05-64.55,7.5-11.16,77.48-24,94.53-26C389.2,413.6,384.37,410.53,380.15,408.52Z"/><path class="cls-16" d="M422.11,407c-.8,9.55-2.62,18.71-4.9,21.34-1.53,1.76-12.35,5.68-26.29,10.13l-3.4,1.06c-3.45,1.09-7,2.18-10.72,3.29l-1.79.53c-22.48,6.71-46.93,13.24-54.15,14.43a10.83,10.83,0,0,1-1.7.18,2.93,2.93,0,0,1-.67-.07,39.41,39.41,0,0,1-7.15-2.34c-8.11-2-20.75-8.45-33-15.66l-.5-.29-1.2-.7-4.44-2.68c-.33-.22-.67-.42-1-.62-.6-.37-1.18-.73-1.76-1.11-1.2-.74-2.37-1.48-3.53-2.22l-1.76-1.14c-11.22-7.28-20-13.87-21.4-16.06-4.85-7.74,3.2-42,7.49-50.93a5.37,5.37,0,0,1,1.06-1.77c5.87-5.84,75.77-21.66,89.21-22.47a11.63,11.63,0,0,1,1.81.07,25,25,0,0,1,3.08.6c7.5,1.87,19.78,7.43,32.3,14,3.44,1.81,6.9,3.7,10.27,5.61,3.53,2,7,4,10.2,6l1.43.89c2,1.2,3.83,2.39,5.61,3.55,2.08,1.36,4,2.67,5.78,3.91,5.55,3.94,9.31,7.2,10.07,9.09,1.46,3.66,1.78,11.56,1.31,19.76C422.3,404.62,422.22,405.83,422.11,407Z"/><g class="cls-18"><path class="cls-16" d="M422.09,388.09c-.07-.21-.12-.42-.19-.64a8.39,8.39,0,0,0-1.57-2.94,1.49,1.49,0,0,0-1.72-.42c-1.33.44-2.42,2-3.53,3a37.72,37.72,0,0,1-5,3.47c-3.83,2.29-8,3.08-12.31,4a24.5,24.5,0,0,0-6.62,2.23c-2,1-3.87,2.16-5.8,3.24a45.9,45.9,0,0,1-12.44,5,97.09,97.09,0,0,1-14.4,2c-4.36.33-8.72.37-13.08.56-3.56.16-7.91.61-10.3,3.43-2.2,2.61-2.42,6.27-2.55,9.38a107.11,107.11,0,0,1-.67,10.73,129.21,129.21,0,0,1-2.89,14c-.59,2.34-1.2,4.66-1.95,7a42.44,42.44,0,0,0-1.34,4.78c10.34-2.35,30.48-7.82,49.25-13.43l1.79-.53c3.67-1.11,7.27-2.2,10.72-3.29l3.4-1.06c13.94-4.45,24.76-8.37,26.29-10.13,2.28-2.63,4.1-11.79,4.9-21.34.11-1.19.19-2.4.26-3.6A86.81,86.81,0,0,0,422.09,388.09Z"/></g><path class="cls-13" d="M388,360.23a.47.47,0,0,1-.36.13c-16.61,1.85-84.89,13.44-92.4,23.25-9.09,11.87-16,48.61-16.87,56.3l-.5-.29-1.2-.7-4.44-2.68c-.33-.22-.67-.42-1-.62-.6-.37-1.18-.73-1.76-1.11,0-7.73,8.62-46.25,14.88-56,8.81-13.79,89.34-23.74,91.44-24.17a4.82,4.82,0,0,1,1.94.31C381.14,356.43,384.6,358.32,388,360.23Z"/><path class="cls-19" d="M264.5,428.85c.42,1.12.89,2.28,1.41,3.44l-1.76-1.14c-.47-1.15-.89-2.31-1.31-3.46a170.37,170.37,0,0,1-5.47-21.05c-1.57-7.25-2.84-14.7-2.28-22.16a.53.53,0,0,1,1.06,0c-.2,8.2,1.11,16.21,2.89,24.17C260.57,415.45,262,422.36,264.5,428.85Z"/><path class="cls-19" d="M276.12,409.1c-3.32,8.76-3.61,18-3.92,27.14-.33-.22-.67-.42-1-.62a93.2,93.2,0,0,1,1-16.09,53.39,53.39,0,0,1,3.32-12c-.16-.68-.26-1.38-.4-2l-.9-4c-2.36-10.66-3.8-22.1.9-32.62a.38.38,0,0,1,.72.21,61.66,61.66,0,0,0-2.45,17.65,84.17,84.17,0,0,0,2.46,15.52c.22,1,.45,2,.68,3,.34-.72.71-1.42,1.09-2.11a53.42,53.42,0,0,1,11.15-13.33,91,91,0,0,1,13.72-10.13q3.69-2.23,7.61-4.13,2-1,4.14-1.89a17.45,17.45,0,0,1,4-1.41c.34-.06.68.39.33.61a28.76,28.76,0,0,1-4.22,1.93c-1.46.63-2.89,1.3-4.32,2a92.35,92.35,0,0,0-8.26,4.62c-9.77,6.13-19.34,14.22-24.21,24.24-.23.49-.45,1-.67,1.49.2.92.52,1.79,1.63,2.05a13.12,13.12,0,0,0,3.7-.06c1.47-.11,2.93-.27,4.39-.46,11-1.43,21.7-4.75,32.32-7.84.72-.21.9.78.23,1-6.44,2.11-12.93,4.19-19.55,5.77a110.73,110.73,0,0,1-17.72,2.87C280,410.58,277.24,410.94,276.12,409.1Z"/><path class="cls-19" d="M322.53,428.47c-8.8,1.33-17.59,2.68-26.22,4.84a118.73,118.73,0,0,0-11.58,3.49c-1.87.69-3.71,1.43-5.54,2.24l-1.35.58-1.2-.7c.9-.32,1.77-.73,2.63-1.09,13.59-5.83,28.47-8.05,43.06-10.25C323,427.49,323.16,428.37,322.53,428.47Z"/><path class="cls-19" d="M422.11,407c-.51,1.06-1.05,2.11-1.61,3.15a61.59,61.59,0,0,1-6.4,10,46.25,46.25,0,0,1-9,8c-4.76,3.39-9.51,6.76-14.14,10.28l-3.4,1.06c2.38-1.81,4.77-3.63,7.19-5.4,6.61-4.87,14.19-9.13,19.13-15.58a68.64,68.64,0,0,0,6.27-10.27c.81-1.59,1.6-3.22,2.26-4.88C422.3,404.62,422.22,405.83,422.11,407Z"/><path class="cls-19" d="M409.6,379.27c-1.63,3.43-2.68,7.13-4.05,10.66s-2.85,7.05-4.48,10.51a77.87,77.87,0,0,1-11.23,17.61,75.1,75.1,0,0,1-7.71,7.74c1.18-1,1.13-6.36,1.31-7.94a58.13,58.13,0,0,0,.43-8.33,41,41,0,0,0-7.6-22.9c-4.75-6.44-11.63-11.2-18.42-15.75-2.56-1.71-5.11-3.43-7.63-5.19a22.33,22.33,0,0,0,.27-5,23.45,23.45,0,0,0-.33-2.62c-.14-.74-.28-1.49-.45-2.24a9.19,9.19,0,0,0,1.93.49c3.42.88,6.79,1.92,10.18,2.92,2.76.83,5.54,1.66,8.3,2.51l2.06.64a28.62,28.62,0,0,1-.55,7.93c-.29,1.46-.68,2.9-1,4.35a12.6,12.6,0,0,1-1.28,4.15.22.22,0,0,0,.34.28c1.08-1,1.31-2.56,1.72-3.85.44-1.45.8-2.93,1.12-4.39a28.77,28.77,0,0,0,.73-8.14c4.6,1.43,9.2,2.86,13.85,4.18,5.39,1.53,10.85,2.94,16.13,4.76,2.64.9,5.23,1.89,7.79,2.95-1.75-1.24-3.7-2.55-5.78-3.91-5.14-1.64-10.37-3.05-15.58-4.49-5.59-1.54-11.11-3.27-16.64-5a.41.41,0,0,0-.4-.12c-5.78-1.79-11.56-3.55-17.43-5.07l-.86-.22a20,20,0,0,0-1.83-4.59,40.91,40.91,0,0,0-3.06-5.38,53.26,53.26,0,0,0-3.71-4.89c-.1-.12-.19-.23-.3-.34a25,25,0,0,0-3.08-.6c.64.64,1.26,1.29,1.87,2a41.31,41.31,0,0,1,3.76,4.92,51.55,51.55,0,0,1,2.93,5.09c.43.85.84,1.71,1.22,2.58.11.26.21.52.32.79a112.23,112.23,0,0,0-17.3-2.81.13.13,0,0,0-.15.11,7.59,7.59,0,0,0-2.47,0,6.38,6.38,0,0,0-2.68.94c-1.94,1.4-2.36,3.9-2.63,6.15-.14,1.14-.28,2.28-.41,3.43-7.71-2.3-16.39-1.8-24.43-1.59-9.23.23-18.46.78-27.67.51-5.14-.14-10.38-.36-15.46-1-.47-.05-.63.66-.17.76a78.61,78.61,0,0,0,13.1,1.87c4.54.23,9.11.25,13.67.17,9.06-.16,18.12-.69,27.18-.55a48.3,48.3,0,0,1,13.54,1.75q-.69,5.64-1.36,11.28c-.36,3-.73,6-1.09,9-.24,2-.49,4.08-.73,6.12-.44,3.58-.84,6.41,1.74,9.2,8.19,8.84.65,42.73-4.5,52a16.79,16.79,0,0,0-2.11,5.15,2.93,2.93,0,0,0,.67.07,10.83,10.83,0,0,0,1.7-.18,17.77,17.77,0,0,1,2.07-4.95c5.16-9.31,12.69-43.2,4.51-52-2.59-2.8-2.19-5.63-1.75-9.21.39-3.18.76-6.37,1.15-9.57a29.13,29.13,0,0,0,6.2,1.68c3.73.76,7.5,1.35,11.27,1.93a163.47,163.47,0,0,1,22.56,4.87A74.13,74.13,0,0,1,379,395.33a.73.73,0,0,0,.61,0,42.71,42.71,0,0,1,2.76,16.78c-7-.59-14-1.25-21-2.19-7.57-1-15.08-2.42-22.63-3.58a.31.31,0,0,0-.13.6,191.36,191.36,0,0,0,22.43,4.15c7.06,1,14.17,1.73,21.31,2.13a78.11,78.11,0,0,1-3.76,19.91c-.69,2.2-1.44,4.39-2.23,6.57a.37.37,0,0,0-.55.14,28.67,28.67,0,0,0-4.06-.68c-1.81-.19-3.64-.24-5.47-.28a90.14,90.14,0,0,1-10.91-.43,100.88,100.88,0,0,1-10.26-2,80.9,80.9,0,0,1-9.3-3.19.23.23,0,0,0-.21.4,28.13,28.13,0,0,0,9,3.43c3.22.78,6.51,1.33,9.78,1.83a75.47,75.47,0,0,0,10.84.63,45.6,45.6,0,0,1,5.71.45c1.65.22,3.32.6,5,.77-.31.84-.64,1.69-1,2.53l1.79-.53c.78-2.11,1.54-4.23,2.25-6.36,1.08-3.21,2.06-6.46,2.86-9.75,12.31-8.36,19.29-21.75,24.33-34.54a98.4,98.4,0,0,0,4.47-12.6A.58.58,0,0,0,409.6,379.27ZM335,352.69a.14.14,0,0,0,.11.1c4.5.68,8.95,1.61,13.36,2.68a.82.82,0,0,0,0,.26,13.67,13.67,0,0,1,.81,2.49,20.37,20.37,0,0,1,.39,2.6,21.45,21.45,0,0,1-.05,4.46c-1.33-.94-2.65-1.89-4-2.87-4.1-3.1-8.1-6.3-12.24-9.38A6.73,6.73,0,0,1,335,352.69Zm23.8,34.64c-7.5-1.47-15-2.81-22.55-4.24-3-.56-6.41-1-9.25-2.29.17-1.43.35-2.87.52-4.3l1.41-11.68a.85.85,0,0,0,0-.32l.57-4.65c.27-2.25.7-4.75,2.64-6.15a4.39,4.39,0,0,1,.64-.39,174.89,174.89,0,0,0,20.77,16.28c6.79,4.55,13.76,9,19.25,14.91a34.24,34.24,0,0,1,6.24,9.44A77.32,77.32,0,0,0,358.79,387.33Z"/><path class="cls-20" d="M345.77,451.7c2.16-7.18,9.67-38.34,6.13-49.61s-58.48-45.68-74.71-48.79c-2.76-.53,8.34-4.38,10.37-3.78s66.49,30.18,74.58,49c4.8,11.18-3.92,48-5.89,50.25S345,454.16,345.77,451.7Z"/><path class="cls-20" d="M390.82,437.53c2.19-6.94,9.73-37,6.06-47.94s-60.51-43.2-77.11-46.24c-2.82-.52,7.64-2.88,9.73-2.37,8.8,2.12,71.84,30.1,77.83,45.21,4.38,11-3.79,46.39-5.81,48.56S390.07,439.91,390.82,437.53Z"/><path class="cls-21" d="M358.28,353.12c-1.87.47-3.72,1-5.57,1.56a27.3,27.3,0,0,1-3.83.91c5,2.63,10.21,5.51,15.23,8.48,2.8-1.05,5.88-1.44,8.78-2.23l1.61-.46C369.12,358.47,363.57,355.67,358.28,353.12Z"/><path class="cls-20" d="M276.42,438.79c.73-7,7.7-44.56,16.91-56.58,7.51-9.81,75.78-21.41,92.4-23.24,2.82-.32-9.75-6.5-11.86-6.07s-82.63,10.39-91.44,24.18c-6.77,10.59-16.32,54.9-14.7,57.29S276.16,441.32,276.42,438.79Z"/><path class="cls-22" d="M378.86,354.36c-.87,1.25-2.62,1.94-4.06,2.39a28.33,28.33,0,0,1-6.13,1.07,78.94,78.94,0,0,0-11.62,2c-13,3-26.13,5.23-39,8.65a117.9,117.9,0,0,0-18.6,6.46,22.91,22.91,0,0,0-10.79,10.63,101.79,101.79,0,0,0-6.1,15.24c-2.15,6.32-4.2,12.72-5.81,19.17-.94,3.79-1.38,7.76-3.41,11.28a5.67,5.67,0,0,1-4.31,3.17,3.43,3.43,0,0,1-1.35-.17l0,.08c1.62,2.39,8.43,6.95,8.69,4.42.73-7,7.7-44.56,16.91-56.58,7.51-9.81,75.78-21.41,92.4-23.24C387.55,358.76,382.92,356.1,378.86,354.36Z"/><path class="cls-23" d="M442.69,495.19a13.53,13.53,0,0,0-9.63-16.48,12.72,12.72,0,0,0-2.64-.37,13.14,13.14,0,0,0-25-4.33,14.18,14.18,0,0,0-1.48-.47,13.43,13.43,0,0,0-16.12,10.11A13.81,13.81,0,0,0,391.67,497a13.71,13.71,0,0,0,8.51,19.48,13,13,0,0,0,10.31-1.82,13.06,13.06,0,0,0,7.74,5.52A13.42,13.42,0,0,0,434.35,510a14.14,14.14,0,0,0,.26-5.36A13.74,13.74,0,0,0,442.69,495.19Z"/><path class="cls-24" d="M424.14,487.32a1.6,1.6,0,0,0,1.13.47,1.64,1.64,0,0,0,1.59-1.66,1.59,1.59,0,0,0-1.6-1.61,1.63,1.63,0,0,0-1.58,1.65,1.59,1.59,0,0,0,.08.5l-6.23,4a2.46,2.46,0,0,0-.78-.57l1.21-4.87a1.57,1.57,0,0,0,1.13-.48,1.66,1.66,0,0,0,0-2.31,1.56,1.56,0,0,0-2.24,0,1.67,1.67,0,0,0,0,2.32,1.41,1.41,0,0,0,.4.29l-1.2,4.85a2.68,2.68,0,0,0-.8,0l-2.6-7.1a1.67,1.67,0,0,0,.68-1.05,1.64,1.64,0,1,0-1.37,1.32l2.59,7.05a2.73,2.73,0,0,0-1,.8l-3.26-2.83a1.77,1.77,0,0,0,0-1.34,2,2,0,0,0-2.26-1.24,1.56,1.56,0,0,0-.94,2.15,2,2,0,0,0,2.27,1.24,1.37,1.37,0,0,0,.45-.23l3.36,2.91a2.63,2.63,0,0,0-.14.5,1.32,1.32,0,0,0,0,.28l-7.61-.74a1.59,1.59,0,0,0-.61-1.08,1.56,1.56,0,0,0-2.23.32,1.66,1.66,0,0,0,.3,2.29,1.56,1.56,0,0,0,2.23-.32,2.2,2.2,0,0,0,.23-.46l7.72.75c0,.06,0,.1,0,.15l-3.44,2.46a1.58,1.58,0,0,0-1.15-.42,1.65,1.65,0,0,0-1.51,1.74,1.59,1.59,0,0,0,1.67,1.53,1.64,1.64,0,0,0,1.4-2.23l3.32-2.37a2.59,2.59,0,0,0,.94.92l-1.73,6.28a1.55,1.55,0,0,0-1.15.44,1.66,1.66,0,0,0-.09,2.31,1.56,1.56,0,0,0,2.25.07,1.67,1.67,0,0,0,.08-2.31,1.44,1.44,0,0,0-.39-.31l1.71-6.21.12,0a2.58,2.58,0,0,0,1,0l.86,3.61a1.62,1.62,0,1,0,2.24,1.93,1.64,1.64,0,0,0-1-2.05,1.61,1.61,0,0,0-.49-.06l-.88-3.69a2.33,2.33,0,0,0,.62-.46l5.47,4.09a1.66,1.66,0,0,0,0,1.26,1.56,1.56,0,0,0,2.07.87,1.65,1.65,0,0,0,.87-2.14,1.55,1.55,0,0,0-2.07-.87,1.68,1.68,0,0,0-.42.27l-5.46-4.08a2.91,2.91,0,0,0,.31-.84c0-.11,0-.23,0-.34l4.42.65a1.62,1.62,0,0,0,.56,1.12,1.57,1.57,0,0,0,2.24-.22,1.68,1.68,0,0,0-.19-2.31,1.57,1.57,0,0,0-2.24.22,1.66,1.66,0,0,0-.25.45l-4.59-.68a2.9,2.9,0,0,0-.24-.64Z"/><path class="cls-23" d="M397.55,522a11.63,11.63,0,0,0-8.27-14.16,11.07,11.07,0,0,0-2.26-.31,11.28,11.28,0,0,0-21.47-3.72,12.54,12.54,0,0,0-1.27-.4,11.52,11.52,0,0,0-13.84,8.68,11.83,11.83,0,0,0,3.3,11.43,11.78,11.78,0,0,0,7.31,16.72,11.16,11.16,0,0,0,8.85-1.55,11.19,11.19,0,0,0,6.65,4.73,11.51,11.51,0,0,0,13.84-8.67,12,12,0,0,0,.22-4.6A11.78,11.78,0,0,0,397.55,522Z"/><path class="cls-24" d="M381.62,515.24a1.32,1.32,0,0,0,1,.4,1.39,1.39,0,0,0,1.36-1.42,1.36,1.36,0,0,0-1.36-1.39,1.41,1.41,0,0,0-1.37,1.42,1.56,1.56,0,0,0,.08.44L376,518.12a2.08,2.08,0,0,0-.68-.49l1-4.19a1.32,1.32,0,0,0,1-.41,1.42,1.42,0,0,0,0-2,1.34,1.34,0,0,0-1.93,0,1.43,1.43,0,0,0,0,2,1.15,1.15,0,0,0,.34.25l-1,4.17a1.94,1.94,0,0,0-.68,0l-2.23-6.1a1.41,1.41,0,0,0-.51-2.54,1.41,1.41,0,0,0-.51,2.77,1.24,1.24,0,0,0,.43,0l2.22,6.06a2.24,2.24,0,0,0-.82.68l-2.81-2.43a1.48,1.48,0,0,0,0-1.15,1.67,1.67,0,0,0-1.94-1.06,1.32,1.32,0,0,0-.8,1.84A1.69,1.69,0,0,0,369,516.6a1.2,1.2,0,0,0,.39-.2l2.89,2.5a1.94,1.94,0,0,0-.12.43,2,2,0,0,0,0,.24l-6.52-.64A1.46,1.46,0,0,0,365,518a1.34,1.34,0,0,0-1.91.28,1.43,1.43,0,0,0,.25,2,1.35,1.35,0,0,0,1.92-.28,1.28,1.28,0,0,0,.19-.39l6.63.64s0,.09,0,.13l-3,2.11a1.27,1.27,0,0,0-1-.35,1.4,1.4,0,0,0-1.3,1.48,1.36,1.36,0,0,0,1.43,1.32,1.41,1.41,0,0,0,1.3-1.49,1.58,1.58,0,0,0-.1-.43l2.86-2a2.24,2.24,0,0,0,.8.79l-1.48,5.39a1.36,1.36,0,0,0-1,.38,1.44,1.44,0,0,0-.07,2,1.32,1.32,0,0,0,1.92,0,1.42,1.42,0,0,0,.08-2,1.19,1.19,0,0,0-.34-.26L373.8,522l.11,0a2.2,2.2,0,0,0,.85,0l.74,3.1a1.42,1.42,0,0,0,.21,2.59,1.38,1.38,0,0,0,1.71-.94,1.39,1.39,0,0,0-.89-1.75,1.22,1.22,0,0,0-.42-.06l-.75-3.17a2.2,2.2,0,0,0,.53-.39l4.7,3.51a1.42,1.42,0,0,0,0,1.09,1.34,1.34,0,0,0,1.78.75,1.44,1.44,0,0,0,.74-1.84,1.33,1.33,0,0,0-1.78-.75,1.38,1.38,0,0,0-.36.23l-4.69-3.51a2.39,2.39,0,0,0,.27-.72,1.37,1.37,0,0,0,0-.29l3.8.56a1.42,1.42,0,0,0,.48,1,1.34,1.34,0,0,0,1.92-.19,1.43,1.43,0,0,0-.16-2,1.36,1.36,0,0,0-2.14.57l-3.94-.58a2.31,2.31,0,0,0-.21-.55Z"/></g></g></svg>