<svg id="Layer_1" data-name="Layer 1" xmlns="http://www.w3.org/2000/svg" viewBox="0 0 351.51 170.47"><defs><style>.cls-1{fill:#f596ab;}.cls-2{fill:#231f20;}</style></defs><title>menu</title><path class="cls-1" d="M317.62,97.94a77,77,0,0,1-4.76,29.42c-12.76,33.41-60.32,34.8-96.2,27.43-14.64-3-29.16-6.62-43.58-10.31q-15.59-4-31.07-8.46c-14.36,5.32-28.83,10.3-43.65,14.24a2.53,2.53,0,0,1-2.52-4.15c5.22-6.28,9.28-13.28,13.2-20.37-1.51-.5-3-1-4.52-1.49-17-5.85-33.64-13.79-43.22-29.76s-8-39.81,1.09-55.76c10.54-18.55,33.46-24.06,53.17-24.89C146.44,12.56,178,19,207.81,26.25,235.49,33,263.61,41.54,289,54.67,306.68,64.07,317.05,77.59,317.62,97.94ZM293,50.24c9.48,5.17,15.9,12.28,23.21,19.93a.61.61,0,0,0,1-.55C315,52.15,284.23,40,269,39.11a.15.15,0,0,0-.09.27C276.67,43.52,285.22,46,293,50.24Zm26.4,24.68a.42.42,0,0,0-.71.37c.49,2.34,1.14,4.63,1.59,7s.65,4.65,1.74,7a.31.31,0,0,0,.57,0C323.81,84.94,322.8,78.05,319.38,74.92ZM59.84,31.47C76.75,12.6,98,9.34,122.28,8.14c.47,0,.67-.76.15-.88-21.06-4.68-54.28.88-63.08,23.9A.3.3,0,0,0,59.84,31.47ZM216.77,161.21c-9.78-3.74-20.66-4.85-30.84-7.25-11.88-2.8-23.59-7.5-35.57-9.57-.37-.06-.65.4-.29.62,10.15,6.5,23.3,9.2,34.87,12.08,10.09,2.52,21.16,5.81,31.65,5.16A.53.53,0,0,0,216.77,161.21Zm6.59.58c-1.27-.11-2.84-.62-4,0a.4.4,0,0,0-.1.62c.9.86,2.41.88,3.59,1s2.71.62,3.77-.31a.31.31,0,0,0,0-.44C225.72,161.75,224.54,161.9,223.36,161.79Z"/><path class="cls-2" d="M98,65.37a2.45,2.45,0,0,1,1.23,1.41,2.14,2.14,0,0,1-.16,1.83A15.9,15.9,0,0,1,95.88,73a13.65,13.65,0,0,1-4.31,2.79,12.52,12.52,0,0,1-4.21,1,13,13,0,0,1-4.3-.47l-.43-.12a2.44,2.44,0,0,1-.41-.16,12.86,12.86,0,0,1-4.36-2.53,13,13,0,0,1-3.07-4.06,15.22,15.22,0,0,1-1.59-5.63,21.85,21.85,0,0,1,.42-6.47A18.17,18.17,0,0,1,76,51.24a14,14,0,0,1,3.79-4.11,13.6,13.6,0,0,1,4.36-2.08,15.23,15.23,0,0,1,5-.46,17.49,17.49,0,0,1,4.25.83,15.74,15.74,0,0,1,3.78,1.82,10.53,10.53,0,0,1,3.07,2.87,6.73,6.73,0,0,1,1.23,3.31,2.44,2.44,0,0,1-.58,1.79,2.31,2.31,0,0,1-1.68.82,2.22,2.22,0,0,1-1.79-.55,2.43,2.43,0,0,1-.82-1.7,2.31,2.31,0,0,0-.51-1.08,5.61,5.61,0,0,0-1.58-1.39,10.92,10.92,0,0,0-2.67-1.25,11.66,11.66,0,0,0-5.73-.44,8.19,8.19,0,0,0-3,1.13,9.33,9.33,0,0,0-2.76,2.72A13.53,13.53,0,0,0,78.4,58.4a15.74,15.74,0,0,0-.33,5.08,10.65,10.65,0,0,0,1.11,3.81,8.52,8.52,0,0,0,2.09,2.64,8.61,8.61,0,0,0,2.6,1.52,7.93,7.93,0,0,0,2.79.45,8,8,0,0,0,3-.59,9.8,9.8,0,0,0,2.8-1.75,9.66,9.66,0,0,0,2.29-3.09,2.41,2.41,0,0,1,1.43-1.22A2.34,2.34,0,0,1,98,65.37Z"/><path class="cls-2" d="M122,66a9.8,9.8,0,0,1,1.84,4.83,12.91,12.91,0,0,1-.3,4,14.55,14.55,0,0,1-1.57,4,15.74,15.74,0,0,1-2.66,3.52,12.16,12.16,0,0,1-3.42,2.43,2.25,2.25,0,0,1-1.72.18,2.38,2.38,0,0,1-1.57-1.3,2.21,2.21,0,0,1-.11-1.83,2.44,2.44,0,0,1,1.23-1.41,8.55,8.55,0,0,0,2.36-1.74,10.84,10.84,0,0,0,1.69-2.32,9.36,9.36,0,0,0,1-2.57,8.11,8.11,0,0,0,.21-2.45,3.82,3.82,0,0,0-3-3.67,4.52,4.52,0,0,0-3.74.88A16.39,16.39,0,0,0,108,72.53c-.65.87-1.24,1.73-1.76,2.58s-1,1.62-1.34,2.31-.75,1.47-1.16,2.34A2.38,2.38,0,0,1,102.54,81a2.34,2.34,0,0,1-1.71.13,2.39,2.39,0,0,1-1.72-2.71s.06-.4.16-1.1.24-1.6.45-2.71.47-2.38.79-3.81.7-2.93,1.14-4.5a59,59,0,0,1,3.42-9.49q2.43-5.25,5.52-7.22a2.29,2.29,0,0,1,1.84-.35,2.46,2.46,0,0,1,1.87,2.93,2.2,2.2,0,0,1-1,1.51,7.57,7.57,0,0,0-1.64,1.57,18.77,18.77,0,0,0-2.15,3.61c-.5,1.07-1,2.26-1.46,3.57s-.93,2.73-1.4,4.29a23.69,23.69,0,0,1,2.89-2.38,11.49,11.49,0,0,1,3.59-1.58,8.45,8.45,0,0,1,4.18.11A8.68,8.68,0,0,1,122,66Z"/><path class="cls-2" d="M143.62,88.4a2.44,2.44,0,0,1-.54,3.83,2.32,2.32,0,0,1-1.86.21,3.15,3.15,0,0,1-2.08-1.8,6.17,6.17,0,0,1-.34-1.33,6.5,6.5,0,0,1,0-1.7l-.51.37a10.79,10.79,0,0,1-3.63,1.56,8,8,0,0,1-4.13-.09,8.68,8.68,0,0,1-4.71-3.09,7.52,7.52,0,0,1-1.23-2.22,12.42,12.42,0,0,1-.62-2.61,13.27,13.27,0,0,1,.31-4,14.45,14.45,0,0,1,1.56-3.94,16.37,16.37,0,0,1,2.66-3.52A12.6,12.6,0,0,1,132,67.63a2.42,2.42,0,0,1,1.88-.13,2.29,2.29,0,0,1,1.4,1.26,2.33,2.33,0,0,1,.11,1.88A2.43,2.43,0,0,1,134.06,72a7.71,7.71,0,0,0-2.36,1.72A10.83,10.83,0,0,0,130,76.1a10.12,10.12,0,0,0-.95,2.57,7.86,7.86,0,0,0-.19,2.4,3.82,3.82,0,0,0,3,3.68,4.66,4.66,0,0,0,3.8-.87,18.4,18.4,0,0,0,4.17-4.2c.53-.7,1-1.41,1.49-2.14s.86-1.41,1.22-2,.65-1.15.89-1.63.4-.83.5-1.07a1.42,1.42,0,0,0,.14-.32,2.44,2.44,0,0,1,1.39-1.23,2.43,2.43,0,0,1,3,3.29l0,.09a.41.41,0,0,1-.05.09.23.23,0,0,0-.06.14c-.19.42-.53,1.19-1,2.32s-1,2.38-1.56,3.75c-.46,1.16-.83,2.16-1.1,3s-.49,1.58-.66,2.18a10.54,10.54,0,0,0-.32,1.43C143.68,87.93,143.64,88.2,143.62,88.4Z"/><path class="cls-2" d="M171.43,79.82a9.8,9.8,0,0,1,1.84,4.82,12.66,12.66,0,0,1-.31,4,14.64,14.64,0,0,1-1.56,4,16.23,16.23,0,0,1-2.66,3.51,12.4,12.4,0,0,1-3.42,2.44,2.34,2.34,0,0,1-1.72.18,2.44,2.44,0,0,1-1.57-1.3,2.23,2.23,0,0,1-.11-1.84,2.42,2.42,0,0,1,1.23-1.4,8.58,8.58,0,0,0,2.36-1.75,11.41,11.41,0,0,0,1.69-2.31,10,10,0,0,0,1-2.57,8.13,8.13,0,0,0,.21-2.45,3.83,3.83,0,0,0-3-3.68,4.55,4.55,0,0,0-3.74.88,16.45,16.45,0,0,0-4.19,4.1c-.65.87-1.24,1.72-1.76,2.57s-1,1.62-1.34,2.32-.75,1.47-1.16,2.33a2.38,2.38,0,0,1-1.14,1.18,2.69,2.69,0,0,1-1.64.23,2.42,2.42,0,0,1-1.36-.84,2.31,2.31,0,0,1-.56-1.53c0-.07,0-.42,0-1.06s.09-1.43.19-2.4.27-2.08.5-3.31a34.79,34.79,0,0,1,.94-3.82,28.69,28.69,0,0,1,1.52-3.89A15.79,15.79,0,0,1,154,74.67a2.34,2.34,0,0,1,1.67-.9,2.3,2.3,0,0,1,1.77.59,2.22,2.22,0,0,1,.85,1.64,2.46,2.46,0,0,1-.55,1.79,13.29,13.29,0,0,0-1.88,3.08A16.32,16.32,0,0,1,159,78.2a11.52,11.52,0,0,1,3.59-1.59,8.57,8.57,0,0,1,4.18.11A8.67,8.67,0,0,1,171.43,79.82Z"/><path class="cls-2" d="M194,85a25.17,25.17,0,0,1,.15,3.35q0,1.81-.21,3.84c-.13,1.35-.31,2.74-.54,4.16s-.5,2.83-.83,4.23-.72,2.84-1.16,4.14-.88,2.47-1.34,3.53a15.29,15.29,0,0,1-3.77,5.68,8.93,8.93,0,0,1-3.78,1.91,8.08,8.08,0,0,1-4-.09,10.55,10.55,0,0,1-1.57-.59,8.43,8.43,0,0,1-3.69-3.62,9.71,9.71,0,0,1-1.14-5.55,2.16,2.16,0,0,1,.83-1.67,2.41,2.41,0,0,1,1.78-.59,2.19,2.19,0,0,1,1.66.8,2.59,2.59,0,0,1,.62,1.77,4.83,4.83,0,0,0,.59,3,4.32,4.32,0,0,0,1.59,1.57,3,3,0,0,0,2,.33,4.26,4.26,0,0,0,2-1,8,8,0,0,0,1.86-2.57,28.21,28.21,0,0,0,1.75-4.32l-1,.32a7.48,7.48,0,0,1-2.26.26,9.7,9.7,0,0,1-2.23-.35,9.92,9.92,0,0,1-2.44-1.06,10.5,10.5,0,0,1-2.15-1.75,10.23,10.23,0,0,1-2.66-5,10.94,10.94,0,0,1,.3-5.77A12.45,12.45,0,0,1,176.35,86a11.24,11.24,0,0,1,3.3-2.8A9.68,9.68,0,0,1,183.39,82a9.88,9.88,0,0,1,3.87.3,13,13,0,0,1,1.32.54,8.38,8.38,0,0,1,1.21.72,2.26,2.26,0,0,1,1.53-.73,2.22,2.22,0,0,1,1.76.49A2.4,2.4,0,0,1,194,85Zm-9.47,13.88a4,4,0,0,0,2.21-1.53,9.59,9.59,0,0,0,1.51-3.21,8.42,8.42,0,0,0,.12-4.7A3.59,3.59,0,0,0,185.85,87h0a4.88,4.88,0,0,0-3.81.55,6.25,6.25,0,0,0-1.63,1.32,7.12,7.12,0,0,0-1.44,2.59,5.83,5.83,0,0,0-.32,2.14,6.06,6.06,0,0,0,.32,1.74,4.86,4.86,0,0,0,.64,1.27,9.61,9.61,0,0,0,.59.77,5.62,5.62,0,0,0,2.09,1.4A3.63,3.63,0,0,0,184.49,98.89Z"/><path class="cls-2" d="M223.62,104.39a2.46,2.46,0,0,1,1.23,1.4,2.25,2.25,0,0,1-.11,1.85,9.67,9.67,0,0,1-5.19,4.93,8.92,8.92,0,0,1-5.92.32l-.57-.16a9,9,0,0,1-5.15-4.58,11.8,11.8,0,0,1-.81-8.14,12.85,12.85,0,0,1,1.61-4.12A9,9,0,0,1,211.34,93a9.24,9.24,0,0,1,6.47-1.74,11.37,11.37,0,0,1,2.85.58,11.77,11.77,0,0,1,2.58,1.2,6,6,0,0,1,3.08,4.57,2.24,2.24,0,0,1-.55,1.8,2.38,2.38,0,0,1-1.7.81,2.17,2.17,0,0,1-1.76-.52,2.52,2.52,0,0,1-.87-1.69,1.32,1.32,0,0,0-.29-.41,4.09,4.09,0,0,0-1-.71,6.4,6.4,0,0,0-3.33-.78c-2.6.08-4.23,1.7-4.92,4.86a9.22,9.22,0,0,0-.22,2.77,6.1,6.1,0,0,0,.56,2.09,4.35,4.35,0,0,0,1.09,1.44,4.46,4.46,0,0,0,1.39.83,4.18,4.18,0,0,0,1.46.23,4.4,4.4,0,0,0,1.53-.31,4.29,4.29,0,0,0,1.45-.94,6.24,6.24,0,0,0,1.23-1.66,2.4,2.4,0,0,1,1.41-1.22A2.07,2.07,0,0,1,223.62,104.39Z"/><path class="cls-2" d="M245.79,116.84a2.47,2.47,0,0,1,.75,1.12,2.4,2.4,0,0,1,0,1.38,2.43,2.43,0,0,1-3,1.69,3.34,3.34,0,0,1-2.06-1.7,6.87,6.87,0,0,1-.31-.79,4.85,4.85,0,0,1-.23-1.08,7.67,7.67,0,0,1-1.27.65,8.61,8.61,0,0,1-1.09.36,7.81,7.81,0,0,1-2.26.26,9.7,9.7,0,0,1-2.23-.35,9.59,9.59,0,0,1-2.44-1.07,10.13,10.13,0,0,1-2.15-1.74,10.36,10.36,0,0,1-2.66-5,10.94,10.94,0,0,1,.3-5.77,12.17,12.17,0,0,1,2.1-3.95,11.11,11.11,0,0,1,3.29-2.81,10,10,0,0,1,7.56-.92,9.64,9.64,0,0,1,2.5,1.21,7.38,7.38,0,0,1,2,1.91,1.13,1.13,0,0,1,.1-.25.34.34,0,0,0,0-.11,2.39,2.39,0,0,1,1.23-1.4,2.13,2.13,0,0,1,1.84-.12,2.36,2.36,0,0,1,1.43,1.23,2.18,2.18,0,0,1,.09,1.83q-.39,1.22-.69,2.19c-.2.65-.42,1.41-.66,2.27s-.49,1.77-.76,2.71c-.35,1.35-.62,2.51-.82,3.47s-.34,1.75-.42,2.39-.13,1.15-.15,1.53A5.7,5.7,0,0,0,245.79,116.84Zm-8.41-3.12a4,4,0,0,0,2.21-1.54,9.43,9.43,0,0,0,1.51-3.2,8.45,8.45,0,0,0,.12-4.71,3.6,3.6,0,0,0-2.48-2.44l-.05,0a4.89,4.89,0,0,0-3.81.56,6,6,0,0,0-1.63,1.32,7.07,7.07,0,0,0-1.44,2.58,5.88,5.88,0,0,0-.32,2.15,7.15,7.15,0,0,0,.3,1.73,4.62,4.62,0,0,0,.61,1.26,7.12,7.12,0,0,0,.64.79,5.74,5.74,0,0,0,2.09,1.4A3.63,3.63,0,0,0,237.38,113.72Z"/><path class="cls-2" d="M263.34,112.48q5.64,3.92,6.89,7.81a6.91,6.91,0,0,1,.34,3.19,7.32,7.32,0,0,1-1.11,3,2.37,2.37,0,0,1-2.74,1.06l-.3-.08a.82.82,0,0,1-.32-.19,2.12,2.12,0,0,1-1.08-1.5,2.59,2.59,0,0,1,.29-1.87,2.38,2.38,0,0,0,.29-2.1,8,8,0,0,0-2.15-3,26.35,26.35,0,0,0-4.45-3.3,39.25,39.25,0,0,0-3.87-2.1c-.25,1.11-.47,2.13-.65,3s-.35,1.72-.48,2.42c-.13.85-.26,1.59-.37,2.23a2.28,2.28,0,0,1-1,1.63,2.42,2.42,0,0,1-1.8.49l-.33-.1a2.39,2.39,0,0,1-1.37-1,2.24,2.24,0,0,1-.36-1.72s.07-.39.18-1.09.27-1.6.48-2.71.47-2.37.79-3.81.7-2.93,1.13-4.5a57.79,57.79,0,0,1,3.38-9.5q2.55-5.31,5.52-7.22a2.35,2.35,0,0,1,1.85-.35,2.45,2.45,0,0,1,1.54,1.1,2.36,2.36,0,0,1-.73,3.34,9.12,9.12,0,0,0-1.61,1.58,16.73,16.73,0,0,0-2.13,3.61,31.81,31.81,0,0,0-1.35,3.2c-.43,1.18-.86,2.45-1.28,3.82.47,0,1,0,1.51,0h1.68a19.6,19.6,0,0,0,2.77-.21,12.29,12.29,0,0,0,1.73-.38,8,8,0,0,0,.94-.34,1.38,1.38,0,0,0,.36-.23,2.39,2.39,0,0,1,1.18-1.39,2.32,2.32,0,0,1,1.8-.21,2.52,2.52,0,0,1,1.7,3,4.6,4.6,0,0,1-1.83,2.53,6.52,6.52,0,0,1-1.11.71,12.67,12.67,0,0,1-1.31.54c-.41.12-.83.23-1.27.33S263.83,112.41,263.34,112.48Z"/><path class="cls-2" d="M289.86,123a2.48,2.48,0,0,1,1.23,1.41,2.25,2.25,0,0,1-.11,1.85,9.67,9.67,0,0,1-5.19,4.93,9,9,0,0,1-5.92.32l-.56-.16a8.78,8.78,0,0,1-3-1.75,9.16,9.16,0,0,1-2.15-2.84,11.88,11.88,0,0,1-.81-8.13,12.76,12.76,0,0,1,1.61-4.12,9.06,9.06,0,0,1,2.63-2.86,8.73,8.73,0,0,1,3-1.42,10.89,10.89,0,0,1,3.44-.33,12,12,0,0,1,2.91.59,11.74,11.74,0,0,1,2.58,1.2,6.12,6.12,0,0,1,3.07,4.57.18.18,0,0,0,0,.11,5.58,5.58,0,0,1-1.14,3.68,6.16,6.16,0,0,1-2.89,2,9.49,9.49,0,0,1-3.37.55,14.92,14.92,0,0,1-7.24-2,6,6,0,0,0,.67,4.14,4.68,4.68,0,0,0,2.34,2,4.13,4.13,0,0,0,1.45.24,4.46,4.46,0,0,0,3-1.25,6.44,6.44,0,0,0,1.22-1.66A2.4,2.4,0,0,1,288,122.8,2.1,2.1,0,0,1,289.86,123Zm-6.81-8.25a4.45,4.45,0,0,0-3.15,1.3,8.59,8.59,0,0,0,1.65.9,10.53,10.53,0,0,0,1.91.58,7.88,7.88,0,0,0,1.9.18,5.32,5.32,0,0,0,1.59-.24,1.54,1.54,0,0,0,.65-.4.6.6,0,0,0,.09-.41,3.59,3.59,0,0,0-.34-.42,4.05,4.05,0,0,0-1-.7A6.5,6.5,0,0,0,283.05,114.7Z"/><path class="cls-2" d="M163.33,32a1,1,0,0,1-.42.24.86.86,0,0,1-.45,0,.83.83,0,0,1-.38-.22,7.8,7.8,0,0,0-1.58-1.13,12.62,12.62,0,0,0-2-.87v.14s0,.29-.09.82-.14,1.22-.25,2.06-.23,1.76-.38,2.78-.33,2-.53,3a.83.83,0,0,1-.37.55.94.94,0,0,1-.67.14l-.07,0a.86.86,0,0,1-.51-.38.9.9,0,0,1-.12-.64c.19-1,.37-2,.52-3s.28-1.91.38-2.73.18-1.49.23-2,.08-.79.09-.8a1.34,1.34,0,0,1,.15-.42l-1.21-.18a7.69,7.69,0,0,0-1.17,0,.83.83,0,0,1-.64-.23.85.85,0,0,1-.27-.61.86.86,0,0,1,.84-.93,11.29,11.29,0,0,1,2.28.15,13.1,13.1,0,0,1,2.41.61c.29.11.61.23,1,.38a11.47,11.47,0,0,1,1.08.5,11.9,11.9,0,0,1,1.09.67,8.13,8.13,0,0,1,1,.84.85.85,0,0,1,.29.63A.81.81,0,0,1,163.33,32Z"/><path class="cls-2" d="M167.83,35.69A3.52,3.52,0,0,1,168.2,37a4.62,4.62,0,0,1-.13,1.42,4.19,4.19,0,0,1-.63,1.39,4,4,0,0,1-1.05,1,5.76,5.76,0,0,1-.57.33,3.78,3.78,0,0,1-.74.24,5.07,5.07,0,0,1-.91.1,4.29,4.29,0,0,1-1.08-.13l-.17,0a3.64,3.64,0,0,1-1.56-.82,2.87,2.87,0,0,1-.84-1.4,3.77,3.77,0,0,1,.07-2.27,5.42,5.42,0,0,1,1.2-1.95,4.28,4.28,0,0,1,.78-.64,4.49,4.49,0,0,1,.86-.41,3.36,3.36,0,0,1,2.08-.07,3.48,3.48,0,0,1,1.43.74A3.35,3.35,0,0,1,167.83,35.69Zm-4.34,4a2.46,2.46,0,0,0,1.07,0,2.25,2.25,0,0,0,.84-.34,2.05,2.05,0,0,0,.6-.61,3,3,0,0,0,.36-.79,2.74,2.74,0,0,0,.08-.75,2.24,2.24,0,0,0-.18-.73,1.76,1.76,0,0,0-.45-.61,1.9,1.9,0,0,0-1.42-.45,2.21,2.21,0,0,0-.55.16,2.44,2.44,0,0,0-.45.27,2.6,2.6,0,0,0-.33.29,3.19,3.19,0,0,0-.77,1.23,2,2,0,0,0-.08,1.25A1.59,1.59,0,0,0,163.49,39.68Z"/><path class="cls-2" d="M171.52,36.78a3.81,3.81,0,0,1,1.36-.44,3.47,3.47,0,0,1,1.4.1,3,3,0,0,1,1.65,1.19l.45-1.49c.14-.47.27-.88.38-1.24s.24-.76.38-1.18a.82.82,0,0,1,.44-.51.74.74,0,0,1,.66-.05.89.89,0,0,1,.58,1.11l-.43,1.34L178,37l-.48,1.62q-.36,1.32-.57,2.22c-.14.61-.25,1.1-.31,1.48s-.11.68-.13.89,0,.35,0,.43a1,1,0,0,1,.2.39.82.82,0,0,1,0,.44.84.84,0,0,1-.42.53.88.88,0,0,1-.67.09,1.06,1.06,0,0,1-.69-.56,1.81,1.81,0,0,1-.13-.31,2.59,2.59,0,0,1-.06-.48,2.71,2.71,0,0,1-.51.29,2.27,2.27,0,0,1-.43.13,2.47,2.47,0,0,1-.81.1,3.42,3.42,0,0,1-1.7-.5,3.37,3.37,0,0,1-.78-.63,3.66,3.66,0,0,1-1-1.8,4,4,0,0,1,.11-2.09,4.45,4.45,0,0,1,.73-1.44A4.16,4.16,0,0,1,171.52,36.78Zm.24,5.13a1.91,1.91,0,0,0,.74.5,1.33,1.33,0,0,0,.81,0,1.44,1.44,0,0,0,.79-.57,3.21,3.21,0,0,0,.54-1.16,3,3,0,0,0,0-1.7,1.28,1.28,0,0,0-.88-.88h0a1.46,1.46,0,0,0-.69,0,2.33,2.33,0,0,0-.7.24,2.59,2.59,0,0,0-.59.48,2.85,2.85,0,0,0-.51.94,2,2,0,0,0-.11.78,2.07,2.07,0,0,0,.12.63,1.8,1.8,0,0,0,.23.46A2.66,2.66,0,0,0,171.76,41.91Z"/><path class="cls-2" d="M184.8,45.88a1,1,0,0,1,.28.41.94.94,0,0,1,0,.5.89.89,0,0,1-.42.53.83.83,0,0,1-.67.08,1.19,1.19,0,0,1-.75-.61,1.82,1.82,0,0,1-.11-.28,1.87,1.87,0,0,1-.09-.39,3.42,3.42,0,0,1-.46.24l-.39.13a2.83,2.83,0,0,1-.82.09,3.6,3.6,0,0,1-.81-.12,3.46,3.46,0,0,1-.89-.38,3.85,3.85,0,0,1-.78-.63,3.69,3.69,0,0,1-1-1.8,4,4,0,0,1,.1-2.09,4.49,4.49,0,0,1,.75-1.44,4.33,4.33,0,0,1,1.19-1,3.41,3.41,0,0,1,1.35-.44,3.6,3.6,0,0,1,1.39.09,3.82,3.82,0,0,1,.91.44,2.42,2.42,0,0,1,.7.69.41.41,0,0,1,0-.09l0,0a.82.82,0,0,1,.44-.51.76.76,0,0,1,.67-.05.87.87,0,0,1,.52.44.79.79,0,0,1,0,.67l-.24.79-.24.83c-.08.31-.17.64-.27,1-.12.49-.22.91-.29,1.26a7.91,7.91,0,0,0-.14.86c0,.24-.05.42-.06.56Zm-3.05-1.11a1.53,1.53,0,0,0,.8-.56,3.34,3.34,0,0,0,.54-1.17,3.09,3.09,0,0,0,0-1.7,1.32,1.32,0,0,0-.91-.88h0a1.78,1.78,0,0,0-1.37.21,2.42,2.42,0,0,0-.6.48,2.6,2.6,0,0,0-.51.94,2,2,0,0,0-.11.78,2.29,2.29,0,0,0,.11.62,1.52,1.52,0,0,0,.22.46,1.88,1.88,0,0,0,.24.28,2,2,0,0,0,.76.51A1.33,1.33,0,0,0,181.75,44.77Z"/><path class="cls-2" d="M195.17,42.82a12.16,12.16,0,0,1,0,2.53,19.75,19.75,0,0,1-.54,2.95l-.33,1.11a11.94,11.94,0,0,1-.49,1.28,10.66,10.66,0,0,1-.67,1.25,3.87,3.87,0,0,1-.83,1,3.06,3.06,0,0,1-1.36.7,2.88,2.88,0,0,1-1.46,0,3.28,3.28,0,0,1-.57-.21,3.1,3.1,0,0,1-1.35-1.31,3.62,3.62,0,0,1-.42-2,.77.77,0,0,1,.3-.6.82.82,0,0,1,.64-.22.78.78,0,0,1,.6.28.91.91,0,0,1,.23.65,1.78,1.78,0,0,0,.22,1.06,1.57,1.57,0,0,0,.58.57,1.17,1.17,0,0,0,.73.12,1.63,1.63,0,0,0,.71-.35,4.2,4.2,0,0,0,.95-1.4,13.84,13.84,0,0,0,.81-2.34c.06-.22.12-.45.17-.68s.1-.47.14-.7a9.65,9.65,0,0,1-.89,1,6.32,6.32,0,0,1-.88.72,4.29,4.29,0,0,1-1.3.58,3.17,3.17,0,0,1-1.5,0,3.22,3.22,0,0,1-1.73-1.12,3.1,3.1,0,0,1-.65-1.74,4.77,4.77,0,0,1,.09-1.45,5.4,5.4,0,0,1,.55-1.44,5.77,5.77,0,0,1,1-1.27,4.43,4.43,0,0,1,1.24-.89.83.83,0,0,1,.67,0,.81.81,0,0,1,.51.45.89.89,0,0,1,.05.68.87.87,0,0,1-.45.51A2.81,2.81,0,0,0,189,43a4.26,4.26,0,0,0-.61.85,3.59,3.59,0,0,0-.34.93,3,3,0,0,0-.07.87,1.38,1.38,0,0,0,1.1,1.33,1.61,1.61,0,0,0,1.36-.32A6.65,6.65,0,0,0,192,45.15a8.73,8.73,0,0,0,.62-.92l.48-.83q.19-.37.42-.84a.81.81,0,0,1,.37-.42.89.89,0,0,1,.56-.09.88.88,0,0,1,.51.25A.94.94,0,0,1,195.17,42.82Z"/><path class="cls-2" d="M197.31,44.33a1,1,0,0,1-.37-.2.75.75,0,0,1-.23-.37.87.87,0,0,1,.53-1.12.7.7,0,0,0,.49-.53,1.73,1.73,0,0,0,.05-.42,2,2,0,0,0-.08-.48,1.94,1.94,0,0,0-.11-.36c0-.09-.08-.15-.1-.2a.9.9,0,0,1-.38-.44.87.87,0,0,1,.4-1.11.89.89,0,0,1,.68-.07,1.82,1.82,0,0,1,1,1.13,4.26,4.26,0,0,1,.23.74,3.46,3.46,0,0,1,.09.78,3.19,3.19,0,0,1-.34,1.5,2.4,2.4,0,0,1-1.37,1.13A.84.84,0,0,1,197.31,44.33Z"/><path class="cls-2" d="M204.09,48.49a2.32,2.32,0,0,1,.52.59,2.37,2.37,0,0,1,.27.59,1.75,1.75,0,0,1,.06.55,2.41,2.41,0,0,1-.08.48,2,2,0,0,1-.78,1.09,2.59,2.59,0,0,1-1.13.46,5.78,5.78,0,0,1-2.51-.18,7,7,0,0,1-1.32-.51,5.41,5.41,0,0,1-1-.68,2.87,2.87,0,0,1-.84-1.18,2.19,2.19,0,0,1,0-1.29.87.87,0,0,1,.41-.54.94.94,0,0,1,.68-.08.88.88,0,0,1,.54.42.91.91,0,0,1,.08.67c-.06.19.06.42.35.67A3.09,3.09,0,0,0,200,50a5,5,0,0,0,.92.35,4.07,4.07,0,0,0,1.55.16c.43-.06.65-.16.69-.3a.37.37,0,0,0,0-.15s-.09-.14-.23-.26a3,3,0,0,0-.63-.41l-.78-.4-.9-.48a5.09,5.09,0,0,1-.8-.54,2.53,2.53,0,0,1-.68-.86,1.85,1.85,0,0,1-.08-1.25,2.13,2.13,0,0,1,.7-1.06,2,2,0,0,1,.48-.3,6,6,0,0,1,.56-.22,4,4,0,0,1,1.1-.15,4.2,4.2,0,0,1,1.12.15,2.74,2.74,0,0,1,1.39.82,1.87,1.87,0,0,1,.39,1.78.83.83,0,0,1-.41.54.85.85,0,0,1-.68.08.89.89,0,0,1-.62-1.09s0-.09,0-.09l0-.06a1.14,1.14,0,0,0-.53-.27,2.27,2.27,0,0,0-.65-.09,2.06,2.06,0,0,0-.62.09c-.3.1-.48.21-.51.34v0s0,0,0,0a.2.2,0,0,0,0,.08.7.7,0,0,0,.15.14,2.83,2.83,0,0,0,.6.39l.75.38.94.5A4.63,4.63,0,0,1,204.09,48.49Z"/><path class="cls-2" d="M223.2,50.59a3.27,3.27,0,0,1,.44.8,3.31,3.31,0,0,1,.22.94,5.1,5.1,0,0,1-.09,1.45,4.94,4.94,0,0,1-.56,1.43,5.3,5.3,0,0,1-1,1.28,4.8,4.8,0,0,1-1.24.89.83.83,0,0,1-.67,0,.81.81,0,0,1-.51-.45.87.87,0,0,1-.06-.67.81.81,0,0,1,.46-.5,3.17,3.17,0,0,0,.85-.64,4.09,4.09,0,0,0,.61-.84,3.83,3.83,0,0,0,.35-.94,3,3,0,0,0,.07-.88A1.39,1.39,0,0,0,221,51.18a1.79,1.79,0,0,0-1,.08,5.05,5.05,0,0,0-1.26.7l0,0-.09.52c0,.17-.07.32-.11.46a7.15,7.15,0,0,1-.95,2.14,4.47,4.47,0,0,1-.71.76,1.31,1.31,0,0,1-.72.31,2.08,2.08,0,0,1-.49,0,1.41,1.41,0,0,1-.58-.31,1.25,1.25,0,0,1-.32-.56,1.8,1.8,0,0,1,0-1,4.89,4.89,0,0,1,.8-1.55,10.64,10.64,0,0,1,1.42-1.6,1,1,0,0,0,0-.16.78.78,0,0,0,0-.14,1.4,1.4,0,0,0-.12-.47,1,1,0,0,0-.18-.27.41.41,0,0,0-.19-.14l-.17-.06a1.64,1.64,0,0,0-1.35.33,6.46,6.46,0,0,0-1.52,1.53,8.73,8.73,0,0,0-.62.92c-.19.31-.35.59-.48.83a8.2,8.2,0,0,0-.42.84.77.77,0,0,1-.4.43,1,1,0,0,1-.59.09l-.05,0a.87.87,0,0,1-.65-.84,2,2,0,0,1,0-.38c0-.23,0-.52.07-.87s.09-.76.16-1.21a12.5,12.5,0,0,1,.33-1.38,9.35,9.35,0,0,1,.55-1.41,6.11,6.11,0,0,1,.83-1.28.8.8,0,0,1,.6-.33.83.83,0,0,1,.64.21.8.8,0,0,1,.32.6.9.9,0,0,1-.2.65,2.4,2.4,0,0,0-.37.5c-.1.19-.21.39-.32.61q.28-.29.57-.54a5,5,0,0,1,1.87-1,3,3,0,0,1,1.5,0,2.49,2.49,0,0,1,1.13.64,2.72,2.72,0,0,1,.68,1.14,5.23,5.23,0,0,1,1.5-.54,3.21,3.21,0,0,1,3.11,1.17Z"/><path class="cls-2" d="M230.23,56.12a.87.87,0,0,1,.41,1.17,3.46,3.46,0,0,1-1.87,1.8,3.21,3.21,0,0,1-2.14.13l-.21-.06a3.08,3.08,0,0,1-1.09-.63,3.26,3.26,0,0,1-.78-1,4.29,4.29,0,0,1-.31-2.95,4.5,4.5,0,0,1,.58-1.49,3.19,3.19,0,0,1,.94-1,3.37,3.37,0,0,1,1.08-.52,4.29,4.29,0,0,1,1.25-.12,3.77,3.77,0,0,1,1,.21,4.23,4.23,0,0,1,.94.43,2.24,2.24,0,0,1,1.12,1.65.08.08,0,0,0,0,0A2,2,0,0,1,230.8,55a2.17,2.17,0,0,1-1,.73,3.51,3.51,0,0,1-1.22.2,5.39,5.39,0,0,1-2.63-.69,2.23,2.23,0,0,0,.25,1.5,1.82,1.82,0,0,0,.85.71,1.59,1.59,0,0,0,.53.08,1.85,1.85,0,0,0,.56-.11,1.7,1.7,0,0,0,.52-.35,2.22,2.22,0,0,0,.44-.6.9.9,0,0,1,.51-.45A.77.77,0,0,1,230.23,56.12Zm-2.48-3a1.65,1.65,0,0,0-1.14.47,2.84,2.84,0,0,0,.6.33,3.39,3.39,0,0,0,1.38.27,2.28,2.28,0,0,0,.58-.09.5.5,0,0,0,.23-.15.21.21,0,0,0,0-.15.53.53,0,0,0-.12-.15,1.44,1.44,0,0,0-.35-.25A2.32,2.32,0,0,0,227.75,53.14Z"/><path class="cls-2" d="M240,55.19a3.57,3.57,0,0,1,.67,1.75,4.75,4.75,0,0,1-.1,1.45,5.25,5.25,0,0,1-.56,1.43,6.12,6.12,0,0,1-1,1.28,4.59,4.59,0,0,1-1.23.89.86.86,0,0,1-.63.07.9.9,0,0,1-.57-.47.82.82,0,0,1,0-.67.89.89,0,0,1,.44-.51,3,3,0,0,0,.85-.63,3.59,3.59,0,0,0,.61-.85,3.29,3.29,0,0,0,.35-.93,3.08,3.08,0,0,0,.07-.89,1.37,1.37,0,0,0-1.08-1.32,1.62,1.62,0,0,0-1.36.32,6,6,0,0,0-1.51,1.49c-.24.32-.45.63-.64.94s-.34.59-.47.84-.27.54-.42.85a.9.9,0,0,1-.41.43.92.92,0,0,1-.59.08.84.84,0,0,1-.5-.3.91.91,0,0,1-.21-.55s0-.15,0-.38,0-.53.06-.88.1-.75.18-1.2a12.5,12.5,0,0,1,.33-1.38,10.55,10.55,0,0,1,.55-1.41,5.7,5.7,0,0,1,.82-1.28.83.83,0,0,1,.6-.33.85.85,0,0,1,.64.21.77.77,0,0,1,.31.59.88.88,0,0,1-.19.65,5.05,5.05,0,0,0-.68,1.12,6,6,0,0,1,1.13-1,4.06,4.06,0,0,1,1.3-.58,3,3,0,0,1,1.51,0A3.24,3.24,0,0,1,240,55.19Z"/><path class="cls-2" d="M248,63.33a.85.85,0,0,1,.22.38.9.9,0,0,1-.41,1,.85.85,0,0,1-.68.08,1.13,1.13,0,0,1-.75-.65,2.42,2.42,0,0,1-.13-.48,3.19,3.19,0,0,1,0-.62l-.18.14a4.05,4.05,0,0,1-1.31.57,3,3,0,0,1-1.5,0,3.13,3.13,0,0,1-1.71-1.12,2.72,2.72,0,0,1-.45-.8,3.85,3.85,0,0,1-.12-2.39,5.12,5.12,0,0,1,.56-1.44,5.69,5.69,0,0,1,1-1.27,4.43,4.43,0,0,1,1.24-.89.85.85,0,0,1,.68,0,.81.81,0,0,1,.51.45.89.89,0,0,1-.42,1.19,2.74,2.74,0,0,0-.85.62,4.16,4.16,0,0,0-.6.86,3.59,3.59,0,0,0-.34.93,3,3,0,0,0-.07.87A1.39,1.39,0,0,0,243.73,62a1.68,1.68,0,0,0,1.37-.32,6.64,6.64,0,0,0,1.51-1.53c.19-.26.37-.52.53-.78s.31-.51.44-.73.24-.42.32-.6l.18-.39,0-.11a.88.88,0,0,1,.5-.45.82.82,0,0,1,.67,0,.87.87,0,0,1,.46.48.92.92,0,0,1,0,.69v0l0,0,0,.05c-.06.15-.18.44-.36.85s-.36.86-.55,1.36-.3.78-.4,1.09-.17.57-.23.79A5,5,0,0,0,248,63C248,63.16,248,63.26,248,63.33Z"/><path class="cls-2" d="M249.83,65.6a1,1,0,0,1-.6-.47,1,1,0,0,1-.09-.75.94.94,0,0,1,.46-.59,1,1,0,0,1,.75-.09,1,1,0,0,1,.6.46,1,1,0,0,1-.37,1.34A.94.94,0,0,1,249.83,65.6Zm1.88-6.83a1,1,0,0,1-.69-1.22.89.89,0,0,1,.46-.58,1,1,0,0,1,.75-.09,1,1,0,0,1,.6.46.92.92,0,0,1,.1.74,1,1,0,0,1-.47.6A1,1,0,0,1,251.71,58.77Z"/></svg>